<svg width="17" height="20" viewBox="0 0 17 20" fill="none" xmlns="http://www.w3.org/2000/svg">
<path d="M1.43381 17.2717C2.45381 18.4999 4.35101 18.4999 8.14711 18.4999H8.7591C12.5552 18.4999 14.4533 18.4999 15.4733 17.2717M1.43381 17.2717C0.413805 16.0426 0.764005 14.1777 1.46356 10.4462C1.96081 7.79415 2.20901 6.4673 3.15336 5.6836M15.4733 17.2717C16.4933 16.0426 16.1431 14.1777 15.4435 10.4462C14.9463 7.79415 14.6972 6.4673 13.7529 5.6836M13.7529 5.6836C12.8094 4.8999 11.4587 4.8999 8.75996 4.8999H8.14626C5.44751 4.8999 4.09771 4.8999 3.15336 5.6836" stroke="#2B7CB3" stroke-width="1.5"/>
<path d="M6.75317 11.9548L7.88622 12.9748L10.1532 10.4248" stroke="#2B7CB3" stroke-width="1.5" stroke-linecap="round" stroke-linejoin="round"/>
<path d="M5.90332 4.9V4.05C5.90332 3.3737 6.17198 2.7251 6.6502 2.24688C7.12842 1.76866 7.77702 1.5 8.45332 1.5C9.12962 1.5 9.77822 1.76866 10.2564 2.24688C10.7347 2.7251 11.0033 3.3737 11.0033 4.05V4.9" stroke="#2B7CB3" stroke-width="1.5" stroke-linecap="round"/>
</svg>
