<svg width="22" height="22" viewBox="0 0 22 22" fill="none" xmlns="http://www.w3.org/2000/svg">
<path fill-rule="evenodd" clip-rule="evenodd" d="M10.75 1.5C8.29675 1.5 5.94397 2.47455 4.20926 4.20926C2.47455 5.94397 1.5 8.29675 1.5 10.75C1.5 13.2033 2.47455 15.556 4.20926 17.2907C5.94397 19.0254 8.29675 20 10.75 20C13.2033 20 15.556 19.0254 17.2907 17.2907C19.0254 15.556 20 13.2033 20 10.75C20 8.29675 19.0254 5.94397 17.2907 4.20926C15.556 2.47455 13.2033 1.5 10.75 1.5ZM0 10.75C0 4.813 4.813 0 10.75 0C16.687 0 21.5 4.813 21.5 10.75C21.5 16.687 16.687 21.5 10.75 21.5C4.813 21.5 0 16.687 0 10.75ZM10.692 5H10.808C11.701 5 12.456 5 13.058 5.092C13.705 5.191 14.278 5.41 14.728 5.921C15.165 6.418 15.34 7.029 15.422 7.715C15.5 8.379 15.5 9.22 15.5 10.251V12.836C15.5 13.576 15.5 14.186 15.456 14.65C15.413 15.096 15.319 15.608 14.964 15.977C14.6969 16.2576 14.342 16.4386 13.958 16.49C13.408 16.56 12.953 16.259 12.627 16C12.283 15.726 11.875 15.32 11.39 14.837L11.358 14.805C11.2012 14.6427 11.0377 14.4869 10.868 14.338C10.8378 14.3119 10.8053 14.2884 10.771 14.268C10.7571 14.2657 10.7429 14.2657 10.729 14.268C10.6947 14.2884 10.6622 14.3119 10.632 14.338C10.4623 14.4869 10.2988 14.6427 10.142 14.805L10.11 14.837C9.625 15.319 9.217 15.726 8.873 15.999C8.547 16.259 8.091 16.56 7.542 16.489C7.15814 16.4379 6.80323 16.2573 6.536 15.977C6.181 15.608 6.086 15.097 6.044 14.65C6 14.185 6 13.576 6 12.836V10.25C6 9.219 6 8.378 6.078 7.714C6.16 7.028 6.335 6.417 6.773 5.92C7.223 5.409 7.795 5.19 8.443 5.09C9.043 4.999 9.799 4.999 10.693 4.999M8.67 6.573C8.227 6.641 8.036 6.756 7.9 6.91C7.752 7.08 7.634 7.338 7.569 7.89C7.502 8.455 7.501 9.207 7.501 10.298V12.795C7.501 13.585 7.501 14.122 7.538 14.508C7.57 14.838 7.62 14.932 7.624 14.941C7.64457 14.9621 7.66902 14.9791 7.696 14.991C7.732 14.973 7.809 14.929 7.939 14.825C8.209 14.61 8.559 14.263 9.085 13.74L9.107 13.719C9.315 13.512 9.507 13.321 9.68 13.179C9.88343 12.9995 10.1269 12.8712 10.39 12.805C10.6276 12.751 10.8744 12.751 11.112 12.805C11.406 12.872 11.635 13.025 11.822 13.178C11.996 13.321 12.187 13.512 12.395 13.718L12.417 13.74C12.943 14.263 13.292 14.61 13.563 14.825C13.693 14.929 13.77 14.973 13.806 14.991C13.833 14.9791 13.8574 14.9621 13.878 14.941C13.882 14.931 13.932 14.837 13.964 14.508C14 14.122 14.001 13.585 14.001 12.795V10.298C14.001 9.207 14 8.455 13.933 7.89C13.868 7.338 13.75 7.08 13.602 6.91C13.466 6.756 13.275 6.641 12.832 6.574C12.357 6.501 11.718 6.499 10.751 6.499C9.784 6.499 9.145 6.5 8.67 6.573Z" fill="#F39C12"/>
<rect x="7" y="6" width="7" height="8" rx="2" fill="#F39C12"/>
<rect x="7" y="13" width="2" height="2" fill="#F39C12"/>
<rect x="12" y="12" width="2" height="3" fill="#F39C12"/>
</svg>
