<svg width="20" height="32" viewBox="0 0 20 32" fill="none" xmlns="http://www.w3.org/2000/svg">
<path d="M18 2.28571V28.2857L10.9 24.1829L10 23.6686L9.1 24.1829L2 28.2857V2.28571H18ZM18 0H2C1.46957 0 0.960859 0.240816 0.585786 0.66947C0.210714 1.09812 0 1.67951 0 2.28571V32L10 26.2857L20 32V2.28571C20 1.67951 19.7893 1.09812 19.4142 0.66947C19.0391 0.240816 18.5304 0 18 0Z" fill="#F39C12"/>
<rect x="2" y="2" width="16" height="24" fill="#F39C12"/>
<rect x="0.713989" y="25.8276" width="6" height="3" transform="rotate(-15 0.713989 25.8276)" fill="#F39C12"/>
<rect x="14.4635" y="23.4097" width="6" height="3" transform="rotate(30.5226 14.4635 23.4097)" fill="#F39C12"/>
</svg>
