<svg width="13" height="14" viewBox="0 0 13 14" fill="none" xmlns="http://www.w3.org/2000/svg">
<g clip-path="url(#clip0_110_185)">
<path d="M6.5 0.5C7.09668 0.5 7.6722 0.576172 8.22656 0.728516C8.78092 0.880859 9.2972 1.10091 9.77539 1.38867C10.2536 1.67643 10.6916 2.01497 11.0894 2.4043C11.4871 2.79362 11.8278 3.23161 12.1113 3.71826C12.3949 4.20492 12.6128 4.72331 12.7651 5.27344C12.9175 5.82357 12.9958 6.39909 13 7C13 7.59668 12.9238 8.1722 12.7715 8.72656C12.6191 9.28092 12.3991 9.7972 12.1113 10.2754C11.8236 10.7536 11.485 11.1916 11.0957 11.5894C10.7064 11.9871 10.2684 12.3278 9.78174 12.6113C9.29508 12.8949 8.77669 13.1128 8.22656 13.2651C7.67643 13.4175 7.10091 13.4958 6.5 13.5C5.90332 13.5 5.3278 13.4238 4.77344 13.2715C4.21908 13.1191 3.7028 12.8991 3.22461 12.6113C2.74642 12.3236 2.30843 11.985 1.91064 11.5957C1.51286 11.2064 1.1722 10.7684 0.888672 10.2817C0.605143 9.79508 0.387207 9.27669 0.234863 8.72656C0.0825195 8.17643 0.00423177 7.60091 0 7C0 6.40332 0.0761719 5.8278 0.228516 5.27344C0.380859 4.71908 0.600911 4.2028 0.888672 3.72461C1.17643 3.24642 1.51497 2.80843 1.9043 2.41064C2.29362 2.01286 2.73161 1.6722 3.21826 1.38867C3.70492 1.10514 4.22331 0.887207 4.77344 0.734863C5.32357 0.58252 5.89909 0.504232 6.5 0.5ZM10.3276 4.84814L9.46436 3.98486L5.28125 8.16797L3.53564 6.42236L2.67236 7.28564L5.28125 9.89453L10.3276 4.84814Z" fill="#2B7CB3"/>
</g>
<defs>
<clipPath id="clip0_110_185">
<rect width="13" height="13" fill="white" transform="translate(0 0.5)"/>
</clipPath>
</defs>
</svg>
