<svg width="20" height="20" viewBox="0 0 20 20" fill="none" xmlns="http://www.w3.org/2000/svg">
<path d="M4.11084 5.5H3.11084C2.58041 5.5 2.0717 5.71071 1.69663 6.08579C1.32155 6.46086 1.11084 6.96957 1.11084 7.5V16.5C1.11084 17.0304 1.32155 17.5391 1.69663 17.9142C2.0717 18.2893 2.58041 18.5 3.11084 18.5H12.1108C12.6413 18.5 13.15 18.2893 13.5251 17.9142C13.9001 17.5391 14.1108 17.0304 14.1108 16.5V15.5" stroke="#2B7CB3" stroke-width="2" stroke-linecap="round" stroke-linejoin="round"/>
<path d="M13.1108 3.50011L16.1108 6.50011M17.4958 5.08511C17.8897 4.69126 18.1109 4.15709 18.1109 3.60011C18.1109 3.04312 17.8897 2.50895 17.4958 2.11511C17.102 1.72126 16.5678 1.5 16.0108 1.5C15.4539 1.5 14.9197 1.72126 14.5258 2.11511L6.11084 10.5001V13.5001H9.11084L17.4958 5.08511Z" stroke="#2B7CB3" stroke-width="2" stroke-linecap="round" stroke-linejoin="round"/>
</svg>
