<svg width="20" height="20" viewBox="0 0 20 20" fill="none" xmlns="http://www.w3.org/2000/svg">
<path opacity="0.5" d="M1.464 18.536C2.93 20 5.286 20 10 20C14.714 20 17.071 20 18.535 18.536C20 17.07 20 14.714 20 10C20 5.286 20 2.929 18.535 1.464C17.072 0 14.714 0 10 0C5.286 0 2.929 0 1.464 1.464C0 2.93 0 5.286 0 10C0 14.714 0 17.071 1.464 18.536Z" fill="#E4E4E4"/>
<path d="M5 15.25C4.80109 15.25 4.61032 15.329 4.46967 15.4697C4.32902 15.6103 4.25 15.8011 4.25 16C4.25 16.1989 4.32902 16.3897 4.46967 16.5303C4.61032 16.671 4.80109 16.75 5 16.75H15C15.1989 16.75 15.3897 16.671 15.5303 16.5303C15.671 16.3897 15.75 16.1989 15.75 16C15.75 15.8011 15.671 15.6103 15.5303 15.4697C15.3897 15.329 15.1989 15.25 15 15.25H5ZM5.765 9.898C5.75078 9.53485 5.74578 9.1714 5.75 8.808V0.0680001C6.906 7.45058e-08 8.3 0 10 0C11.7 0 13.094 7.45058e-09 14.25 0.069V8.808C14.25 9.304 14.25 9.644 14.235 9.898C14.22 10.16 14.192 10.241 14.185 10.256C14.1138 10.4166 13.9885 10.547 13.831 10.6247C13.6735 10.7024 13.4937 10.7223 13.323 10.681C13.307 10.677 13.226 10.649 13.008 10.501C12.7117 10.2909 12.421 10.0732 12.136 9.848L12.069 9.796C11.699 9.511 11.41 9.289 11.096 9.152C10.7502 9.00171 10.3771 8.92416 10 8.92416C9.62291 8.92416 9.24985 9.00171 8.904 9.152C8.59 9.289 8.301 9.511 7.931 9.796L7.864 9.848C7.471 10.151 7.201 10.358 6.991 10.501C6.774 10.649 6.693 10.677 6.677 10.681C6.50629 10.7223 6.32651 10.7024 6.16898 10.6247C6.01145 10.547 5.88618 10.4166 5.815 10.256C5.808 10.241 5.78 10.16 5.765 9.898Z" fill="#797979"/>
</svg>
