<svg width="32" height="32" viewBox="0 0 32 32" fill="none" xmlns="http://www.w3.org/2000/svg">
<path d="M30 25.9998H28V16.9998L28.2925 17.2923C28.4805 17.48 28.7353 17.5853 29.0009 17.585C29.2665 17.5848 29.5211 17.4791 29.7087 17.2911C29.8964 17.1031 30.0017 16.8483 30.0014 16.5827C30.0012 16.3171 29.8955 16.0625 29.7075 15.8748L17.4137 3.58483C17.0387 3.21005 16.5302 2.99951 16 2.99951C15.4698 2.99951 14.9613 3.21005 14.5863 3.58483L2.2925 15.8748C2.10503 16.0625 1.99977 16.3169 1.99989 16.5822C2 16.8474 2.10548 17.1017 2.29312 17.2892C2.48077 17.4767 2.7352 17.5819 3.00044 17.5818C3.26569 17.5817 3.52003 17.4762 3.7075 17.2886L4 16.9998V25.9998H2C1.73478 25.9998 1.48043 26.1052 1.29289 26.2927C1.10536 26.4803 1 26.7346 1 26.9998C1 27.2651 1.10536 27.5194 1.29289 27.7069C1.48043 27.8945 1.73478 27.9998 2 27.9998H30C30.2652 27.9998 30.5196 27.8945 30.7071 27.7069C30.8946 27.5194 31 27.2651 31 26.9998C31 26.7346 30.8946 26.4803 30.7071 26.2927C30.5196 26.1052 30.2652 25.9998 30 25.9998ZM19 25.9998H13V19.9998C13 19.8672 13.0527 19.74 13.1464 19.6463C13.2402 19.5525 13.3674 19.4998 13.5 19.4998H18.5C18.6326 19.4998 18.7598 19.5525 18.8536 19.6463C18.9473 19.74 19 19.8672 19 19.9998V25.9998Z" fill="#1F2056"/>
</svg>
