<svg width="21" height="20" viewBox="0 0 21 20" fill="none" xmlns="http://www.w3.org/2000/svg">
<path d="M0.700012 10.204C0.700012 7.915 0.700012 6.771 1.22001 5.823C1.73801 4.874 2.68701 4.286 4.58401 3.108L6.58401 1.867C8.58901 0.622 9.59201 0 10.7 0C11.808 0 12.81 0.622 14.816 1.867L16.816 3.108C18.713 4.286 19.662 4.874 20.181 5.823C20.7 6.771 20.7 7.915 20.7 10.203V11.725C20.7 15.625 20.7 17.576 19.528 18.788C18.357 20 16.471 20 12.7 20H8.70001C4.92901 20 3.04301 20 1.87201 18.788C0.700012 17.576 0.700012 15.626 0.700012 11.725V10.204Z" fill="#2B7CB3"/>
<path d="M9.95001 16C9.95001 16.1989 10.029 16.3897 10.1697 16.5303C10.3103 16.671 10.5011 16.75 10.7 16.75C10.8989 16.75 11.0897 16.671 11.2303 16.5303C11.371 16.3897 11.45 16.1989 11.45 16V13C11.45 12.8011 11.371 12.6103 11.2303 12.4697C11.0897 12.329 10.8989 12.25 10.7 12.25C10.5011 12.25 10.3103 12.329 10.1697 12.4697C10.029 12.6103 9.95001 12.8011 9.95001 13V16Z" fill="#F39C12"/>
</svg>
