<svg width="32" height="32" viewBox="0 0 32 32" fill="none" xmlns="http://www.w3.org/2000/svg">
<path d="M30 26.0001H28V17.0001L28.2925 17.2926C28.4805 17.4802 28.7353 17.5855 29.0009 17.5853C29.2665 17.585 29.5211 17.4793 29.7087 17.2913C29.8964 17.1034 30.0017 16.8485 30.0014 16.5829C30.0012 16.3173 29.8955 16.0627 29.7075 15.8751L17.4137 3.58508C17.0387 3.21029 16.5302 2.99976 16 2.99976C15.4698 2.99976 14.9613 3.21029 14.5863 3.58508L2.2925 15.8751C2.10503 16.0627 1.99977 16.3172 1.99989 16.5824C2 16.8476 2.10548 17.102 2.29312 17.2895C2.48077 17.4769 2.7352 17.5822 3.00044 17.5821C3.26569 17.582 3.52003 17.4765 3.7075 17.2888L4 17.0001V26.0001H2C1.73478 26.0001 1.48043 26.1054 1.29289 26.293C1.10536 26.4805 1 26.7349 1 27.0001C1 27.2653 1.10536 27.5196 1.29289 27.7072C1.48043 27.8947 1.73478 28.0001 2 28.0001H30C30.2652 28.0001 30.5196 27.8947 30.7071 27.7072C30.8946 27.5196 31 27.2653 31 27.0001C31 26.7349 30.8946 26.4805 30.7071 26.293C30.5196 26.1054 30.2652 26.0001 30 26.0001ZM6 15.0001L16 5.00008L26 15.0001V26.0001H20V19.0001C20 18.7349 19.8946 18.4805 19.7071 18.293C19.5196 18.1054 19.2652 18.0001 19 18.0001H13C12.7348 18.0001 12.4804 18.1054 12.2929 18.293C12.1054 18.4805 12 18.7349 12 19.0001V26.0001H6V15.0001ZM18 26.0001H14V20.0001H18V26.0001Z" fill="#076FEE"/>
</svg>
