<svg width="21" height="20" viewBox="0 0 21 20" fill="none" xmlns="http://www.w3.org/2000/svg">
<path d="M0.699951 10.204C0.699951 7.915 0.699951 6.771 1.21995 5.823C1.73795 4.874 2.68695 4.286 4.58395 3.108L6.58395 1.867C8.58895 0.622 9.59195 0 10.7 0C11.808 0 12.8099 0.622 14.816 1.867L16.816 3.108C18.7129 4.286 19.662 4.874 20.181 5.823C20.7 6.771 20.7 7.915 20.7 10.203V11.725C20.7 15.625 20.7 17.576 19.528 18.788C18.357 20 16.471 20 12.7 20H8.69995C4.92895 20 3.04295 20 1.87195 18.788C0.699951 17.576 0.699951 15.626 0.699951 11.725V10.204Z" fill="#E4E4E4"/>
<path d="M9.94995 16C9.94995 16.1989 10.029 16.3897 10.1696 16.5303C10.3103 16.671 10.501 16.75 10.7 16.75C10.8989 16.75 11.0896 16.671 11.2303 16.5303C11.3709 16.3897 11.45 16.1989 11.45 16V13C11.45 12.8011 11.3709 12.6103 11.2303 12.4697C11.0896 12.329 10.8989 12.25 10.7 12.25C10.501 12.25 10.3103 12.329 10.1696 12.4697C10.029 12.6103 9.94995 12.8011 9.94995 13V16Z" fill="#797979"/>
</svg>
