<svg width="27" height="26" viewBox="0 0 27 26" fill="none" xmlns="http://www.w3.org/2000/svg">
<path d="M26.6217 23.9516C24.7179 20.6604 21.7842 18.3004 18.3604 17.1816C20.054 16.1735 21.3698 14.6372 22.1057 12.8089C22.8417 10.9805 22.9571 8.96114 22.4343 7.06084C21.9114 5.16053 20.7793 3.48438 19.2117 2.2898C17.644 1.09521 15.7276 0.448242 13.7567 0.448242C11.7858 0.448242 9.86935 1.09521 8.30172 2.2898C6.73409 3.48438 5.60193 5.16053 5.07911 7.06084C4.55629 8.96114 4.67172 10.9805 5.40767 12.8089C6.14362 14.6372 7.4594 16.1735 9.15294 17.1816C5.72919 18.2991 2.79544 20.6591 0.891686 23.9516C0.821872 24.0655 0.775565 24.1921 0.755497 24.3242C0.735429 24.4562 0.742007 24.5909 0.774841 24.7203C0.807676 24.8498 0.866104 24.9713 0.946676 25.0778C1.02725 25.1843 1.12833 25.2736 1.24397 25.3404C1.3596 25.4072 1.48744 25.4501 1.61995 25.4667C1.75245 25.4833 1.88693 25.4732 2.01546 25.4369C2.14399 25.4007 2.26396 25.3391 2.3683 25.2557C2.47263 25.1724 2.55921 25.069 2.62294 24.9516C4.97794 20.8816 9.14044 18.4516 13.7567 18.4516C18.3729 18.4516 22.5354 20.8816 24.8904 24.9516C24.9542 25.069 25.0407 25.1724 25.1451 25.2557C25.2494 25.3391 25.3694 25.4007 25.4979 25.4369C25.6264 25.4732 25.7609 25.4833 25.8934 25.4667C26.0259 25.4501 26.1538 25.4072 26.2694 25.3404C26.385 25.2736 26.4861 25.1843 26.5667 25.0778C26.6473 24.9713 26.7057 24.8498 26.7385 24.7203C26.7714 24.5909 26.7779 24.4562 26.7579 24.3242C26.7378 24.1921 26.6915 24.0655 26.6217 23.9516ZM6.75669 9.45164C6.75669 8.06717 7.16723 6.7138 7.9364 5.56265C8.70557 4.41151 9.79882 3.5143 11.0779 2.98449C12.357 2.45467 13.7645 2.31605 15.1223 2.58615C16.4802 2.85624 17.7275 3.52293 18.7064 4.50189C19.6854 5.48086 20.3521 6.72814 20.6222 8.08601C20.8923 9.44388 20.7537 10.8513 20.2238 12.1304C19.694 13.4095 18.7968 14.5028 17.6457 15.2719C16.4945 16.0411 15.1412 16.4516 13.7567 16.4516C11.9008 16.4497 10.1215 15.7115 8.80913 14.3992C7.49681 13.0869 6.75867 11.3075 6.75669 9.45164Z" fill="#1F2056"/>
</svg>
