<svg width="32" height="32" viewBox="0 0 32 32" fill="none" xmlns="http://www.w3.org/2000/svg">
<path d="M28.8672 27.5C28.7794 27.652 28.6531 27.7783 28.5011 27.8661C28.349 27.9538 28.1765 28 28.0009 28H4.00093C3.82548 27.9998 3.65316 27.9535 3.50129 27.8656C3.34941 27.7778 3.22332 27.6515 3.13567 27.4995C3.04802 27.3475 3.00191 27.1752 3.00195 26.9997C3.002 26.8243 3.0482 26.6519 3.13593 26.5C5.03968 23.2087 7.97343 20.8487 11.3972 19.73C9.70364 18.7218 8.38786 17.1856 7.65191 15.3572C6.91596 13.5289 6.80053 11.5095 7.32335 9.60918C7.84617 7.70887 8.97833 6.03272 10.546 4.83814C12.1136 3.64355 14.03 2.99658 16.0009 2.99658C17.9718 2.99658 19.8883 3.64355 21.4559 4.83814C23.0235 6.03272 24.1557 7.70887 24.6785 9.60918C25.2013 11.5095 25.0859 13.5289 24.3499 15.3572C23.614 17.1856 22.2982 18.7218 20.6047 19.73C24.0284 20.8487 26.9622 23.2087 28.8659 26.5C28.9539 26.6519 29.0003 26.8243 29.0005 26.9998C29.0007 27.1754 28.9548 27.3479 28.8672 27.5Z" fill="#076FEE"/>
</svg>
