<svg width="26" height="25" viewBox="0 0 26 25" fill="none" xmlns="http://www.w3.org/2000/svg">
<path d="M25.8662 24.5C25.7784 24.652 25.6521 24.7783 25.5001 24.8661C25.348 24.9538 25.1755 25 25 25H0.999951C0.824502 24.9998 0.652187 24.9535 0.500311 24.8656C0.348434 24.7778 0.222342 24.6515 0.134695 24.4995C0.0470479 24.3475 0.000931552 24.1752 0.000976595 23.9997C0.00102164 23.8243 0.0472264 23.6519 0.134951 23.5C2.0387 20.2087 4.97245 17.8487 8.3962 16.73C6.70266 15.7218 5.38688 14.1856 4.65094 12.3572C3.91499 10.5289 3.79956 8.50948 4.32238 6.60918C4.8452 4.70887 5.97735 3.03272 7.54498 1.83814C9.11261 0.643552 11.029 -0.00341797 13 -0.00341797C14.9709 -0.00341797 16.8873 0.643552 18.4549 1.83814C20.0226 3.03272 21.1547 4.70887 21.6775 6.60918C22.2003 8.50948 22.0849 10.5289 21.349 12.3572C20.613 14.1856 19.2972 15.7218 17.6037 16.73C21.0275 17.8487 23.9612 20.2087 25.865 23.5C25.9529 23.6519 25.9993 23.8243 25.9996 23.9998C25.9998 24.1754 25.9538 24.3479 25.8662 24.5Z" fill="#1F2056"/>
</svg>
