<svg width="23" height="20" viewBox="0 0 23 20" fill="none" xmlns="http://www.w3.org/2000/svg">
<path d="M13.6736 5.75V3.625C13.6736 3.06141 13.4497 2.52091 13.0512 2.1224C12.6527 1.72388 12.1122 1.5 11.5486 1.5H4.11108C3.5475 1.5 3.007 1.72388 2.60848 2.1224C2.20997 2.52091 1.98608 3.06141 1.98608 3.625V16.375C1.98608 16.9386 2.20997 17.4791 2.60848 17.8776C3.007 18.2761 3.5475 18.5 4.11108 18.5H11.5486C12.1122 18.5 12.6527 18.2761 13.0512 17.8776C13.4497 17.4791 13.6736 16.9386 13.6736 16.375V14.25" stroke="#2B7CB3" stroke-width="2" stroke-linecap="round" stroke-linejoin="round"/>
<path d="M8.36108 10H21.1111M21.1111 10L17.9236 6.8125M21.1111 10L17.9236 13.1875" stroke="#2B7CB3" stroke-width="2" stroke-linecap="round" stroke-linejoin="round"/>
</svg>
