<svg width="25" height="20" viewBox="0 0 25 20" fill="none" xmlns="http://www.w3.org/2000/svg">
<path d="M22.4545 1.05882C21.2083 0.667647 19.8386 0.5 18.525 0.5C16.3357 0.5 13.978 0.947059 12.35 2.17647C10.722 0.947059 8.36432 0.5 6.175 0.5C3.98568 0.5 1.62795 0.947059 0 2.17647V18.55C0 18.8294 0.280682 19.1088 0.561364 19.1088C0.673636 19.1088 0.729773 19.0529 0.842045 19.0529C2.35773 18.3265 4.54705 17.8235 6.175 17.8235C8.36432 17.8235 10.722 18.2706 12.35 19.5C13.8657 18.55 16.6164 17.8235 18.525 17.8235C20.3775 17.8235 22.2861 18.1588 23.858 18.9971C23.9702 19.0529 24.0264 19.0529 24.1386 19.0529C24.4193 19.0529 24.7 18.7735 24.7 18.4941V2.17647C24.0264 1.67353 23.2966 1.33824 22.4545 1.05882ZM2.24545 16.1471V3.29412C3.48045 2.90294 4.82773 2.73529 6.175 2.73529C7.67945 2.73529 9.68914 3.19353 11.2273 3.84176V16.6947C9.68914 16.0465 7.67945 15.5882 6.175 15.5882C4.82773 15.5882 3.48045 15.7559 2.24545 16.1471ZM22.4545 16.1471C21.2195 15.7559 19.8723 15.5882 18.525 15.5882C17.0205 15.5882 15.0109 16.0465 13.4727 16.6947V3.84176C15.0109 3.18235 17.0205 2.73529 18.525 2.73529C19.8723 2.73529 21.2195 2.90294 22.4545 3.29412V16.1471Z" fill="#E4E4E4"/>
<path d="M11.2272 3.84182C9.68904 3.19359 7.67936 2.73535 6.17491 2.73535C4.82763 2.73535 3.48036 2.903 2.24536 3.29418V16.1471C3.48036 15.7559 4.82763 15.5883 6.17491 15.5883C7.67936 15.5883 9.68904 16.0465 11.2272 16.6948V3.84182Z" fill="#E4E4E4"/>
<path d="M18.525 7.20577C19.513 7.20577 20.4673 7.30636 21.3318 7.49636V5.79753C20.4449 5.62988 19.4906 5.5293 18.525 5.5293C17.0879 5.5293 15.7631 5.70812 14.5955 6.05459V7.8093C15.707 7.41812 17.043 7.20577 18.525 7.20577ZM18.525 10.1787C19.513 10.1787 20.4673 10.2793 21.3318 10.4693V8.77047C20.4449 8.60283 19.4906 8.50224 18.525 8.50224C17.0879 8.50224 15.7631 8.68106 14.5955 9.02753V10.7822C15.707 10.4022 17.043 10.1787 18.525 10.1787ZM18.525 13.1628C19.513 13.1628 20.4673 13.2634 21.3318 13.4534V11.7546C20.4449 11.5869 19.4906 11.4864 18.525 11.4864C17.0879 11.4864 15.7631 11.6652 14.5955 12.0117V13.7664C15.707 13.3752 17.043 13.1628 18.525 13.1628Z" fill="#797979"/>
</svg>
