<svg width="27" height="25" viewBox="0 0 27 25" fill="none" xmlns="http://www.w3.org/2000/svg">
<path d="M18.0234 23.4038C18.0234 23.669 17.9181 23.9234 17.7305 24.1109C17.543 24.2985 17.2887 24.4038 17.0234 24.4038H9.02344C8.75822 24.4038 8.50387 24.2985 8.31633 24.1109C8.12879 23.9234 8.02344 23.669 8.02344 23.4038C8.02344 23.1386 8.12879 22.8842 8.31633 22.6967C8.50387 22.5092 8.75822 22.4038 9.02344 22.4038H17.0234C17.2887 22.4038 17.543 22.5092 17.7305 22.6967C17.9181 22.8842 18.0234 23.1386 18.0234 23.4038ZM26.0234 3.40381V17.4038C26.0234 18.1995 25.7074 18.9625 25.1448 19.5251C24.5821 20.0877 23.8191 20.4038 23.0234 20.4038H3.02344C2.22779 20.4038 1.46473 20.0877 0.902117 19.5251C0.339508 18.9625 0.0234375 18.1995 0.0234375 17.4038V3.40381C0.0234375 2.60816 0.339508 1.8451 0.902117 1.28249C1.46473 0.719879 2.22779 0.403809 3.02344 0.403809H23.0234C23.8191 0.403809 24.5821 0.719879 25.1448 1.28249C25.7074 1.8451 26.0234 2.60816 26.0234 3.40381ZM17.5234 10.4038C17.5234 10.2431 17.4846 10.0848 17.4104 9.94231C17.3362 9.79979 17.2288 9.67725 17.0972 9.58506L12.0972 6.08506C11.9474 5.9801 11.7716 5.91825 11.5891 5.90625C11.4065 5.89424 11.2242 5.93254 11.0619 6.01696C10.8996 6.10139 10.7636 6.22872 10.6687 6.38509C10.5737 6.54146 10.5235 6.72087 10.5234 6.90381V13.9038C10.5235 14.0867 10.5737 14.2662 10.6687 14.4225C10.7636 14.5789 10.8996 14.7062 11.0619 14.7907C11.2242 14.8751 11.4065 14.9134 11.5891 14.9014C11.7716 14.8894 11.9474 14.8275 12.0972 14.7226L17.0972 11.2226C17.2288 11.1304 17.3362 11.0078 17.4104 10.8653C17.4846 10.7228 17.5234 10.5645 17.5234 10.4038Z" fill="#1F2056"/>
</svg>
