<svg width="27" height="25" viewBox="0 0 27 25" fill="none" xmlns="http://www.w3.org/2000/svg">
<path d="M23.0234 0.403809H3.02344C2.22779 0.403809 1.46473 0.719879 0.902117 1.28249C0.339508 1.8451 0.0234375 2.60816 0.0234375 3.40381V17.4038C0.0234375 18.1995 0.339508 18.9625 0.902117 19.5251C1.46473 20.0877 2.22779 20.4038 3.02344 20.4038H23.0234C23.8191 20.4038 24.5821 20.0877 25.1448 19.5251C25.7074 18.9625 26.0234 18.1995 26.0234 17.4038V3.40381C26.0234 2.60816 25.7074 1.8451 25.1448 1.28249C24.5821 0.719879 23.8191 0.403809 23.0234 0.403809ZM24.0234 17.4038C24.0234 17.669 23.9181 17.9234 23.7305 18.1109C23.543 18.2985 23.2887 18.4038 23.0234 18.4038H3.02344C2.75822 18.4038 2.50387 18.2985 2.31633 18.1109C2.12879 17.9234 2.02344 17.669 2.02344 17.4038V3.40381C2.02344 3.13859 2.12879 2.88424 2.31633 2.6967C2.50387 2.50917 2.75822 2.40381 3.02344 2.40381H23.0234C23.2887 2.40381 23.543 2.50917 23.7305 2.6967C23.9181 2.88424 24.0234 3.13859 24.0234 3.40381V17.4038ZM18.0234 23.4038C18.0234 23.669 17.9181 23.9234 17.7305 24.1109C17.543 24.2985 17.2887 24.4038 17.0234 24.4038H9.02344C8.75822 24.4038 8.50387 24.2985 8.31633 24.1109C8.12879 23.9234 8.02344 23.669 8.02344 23.4038C8.02344 23.1386 8.12879 22.8842 8.31633 22.6967C8.50387 22.5092 8.75822 22.4038 9.02344 22.4038H17.0234C17.2887 22.4038 17.543 22.5092 17.7305 22.6967C17.9181 22.8842 18.0234 23.1386 18.0234 23.4038ZM17.5784 9.57131L11.5784 5.57131C11.4278 5.47081 11.2527 5.41309 11.0718 5.40433C10.891 5.39557 10.7111 5.43608 10.5515 5.52155C10.3918 5.60702 10.2584 5.73424 10.1654 5.88962C10.0724 6.045 10.0233 6.22272 10.0234 6.40381V14.4038C10.0233 14.5849 10.0724 14.7626 10.1654 14.918C10.2584 15.0734 10.3918 15.2006 10.5515 15.2861C10.7111 15.3715 10.891 15.412 11.0718 15.4033C11.2527 15.3945 11.4278 15.3368 11.5784 15.2363L17.5784 11.2363C17.7156 11.145 17.8281 11.0213 17.9059 10.876C17.9837 10.7308 18.0244 10.5686 18.0244 10.4038C18.0244 10.239 17.9837 10.0768 17.9059 9.93159C17.8281 9.78636 17.7156 9.66259 17.5784 9.57131ZM12.0234 12.5351V8.27881L15.2209 10.4038L12.0234 12.5351Z" fill="#1F2056"/>
</svg>
